<?xml version="1.0" encoding="UTF-8"?>
<svg id="Calque_1" xmlns="http://www.w3.org/2000/svg" version="1.1" viewBox="0 0 512 512">
  <!-- Generator: Adobe Illustrator 30.4.0, SVG Export Plug-In . SVG Version: 2.1.4 Build 226)  -->
  <path d="M72.5,133.4c36.9,0,66.8-29.9,66.8-66.8S109.4-.2,72.5-.2,5.7,29.7,5.7,66.6s29.9,66.8,66.8,66.8Z"/>
  <path d="M123.1,177.9H21.8c-2.8,0-5,2.2-5,5v323.9c0,2.8,2.2,5,5,5h101.3c2.8,0,5-2.2,5-5V182.9c0-2.8-2.2-5-5-5Z"/>
  <path d="M506.6,300.4v189.2c0,12.2-10,22.3-22.3,22.3h-66.8c-12.2,0-22.3-10-22.3-22.3v-155.8c0-30.7-24.9-55.6-55.6-55.6s-55.6,24.9-55.6,55.6v155.8c0,12.2-10,22.3-22.3,22.3h-66.8c-12.2,0-22.3-10-22.3-22.3V200.2c0-12.2,10-22.3,22.3-22.3h66.8c12.2,0,22.3,10,22.3,22.3v14.2c22.3-28.8,59.1-47.6,100.2-47.6,61.4,0,122.4,44.5,122.4,133.6Z"/>
</svg>