<?xml version="1.0" encoding="UTF-8"?>
<svg id="Calque_1" xmlns="http://www.w3.org/2000/svg" version="1.1" viewBox="0 0 1430 32.7">
  <!-- Generator: Adobe Illustrator 30.4.0, SVG Export Plug-In . SVG Version: 2.1.4 Build 226)  -->
  <defs>
    <style>
      .st0 {
        fill: #ffe44b;
      }
    </style>
  </defs>
  <path class="st0" d="M0,35.4l1428.3-6.5V2.8c-4.6,0-9.2,0-13.8.2l1.7-.2c-14.8-.2-16,1.3-32,1.5,4.6-.3,2.5-.7,1.7-1-8,.4-12.2-.2-20.3-.4,9.3.4-6.3.8.5,1,.4.7-16,.7-24.4.7-5-1,26.1-.5,13.4-1.5-8.4,0-10.5.5-4.6.6-10.5-.1-26.6-.2-34.2-.8-12.6.7-17.7.3-25.7,1.3,6.7,0,7.1-.7,15.6-.3l-9.3.7c-12.2,0-21.9-.6-30.3-.6l8.8-.3h-.4c3.4-.2,14.8,0,13.5-.5-8,.6-14.3,0-24.9.5h.4c-18.5.4-32.1-1.2-43.8.2,3.4,0,10.1.5,8,.8-4.2-.3-15.6-.2-15.2-.6h3.8c-10.5-.2-16.9-.3-20.7-.2-2.9.5,0,.8-7.5,1.1-18.6-.3,7.5-1.1-5.1-1.5l-17.3.5-3.8-.4c-25.7-.4-45.5,1-72.9,1-.4-.7,19.4-1,26.1-1.1-8.5-.6-20.6.2-32-.2-10.6-.1-18.5.5-16.8,1-13,.3-9.3-.4-10.9-.6-4.2.8-20.7.5-31.2.7l-.5-.5-16.4.6c4.2,0,.4.5.4.7h-4.2c16.1,1.2,36.2-.9,52.7.5-5,.2,1.7.4-3.3.6-4.2,0-5.1-.1-5.5-.3-2.5.4-9.2.7-.4.7-.4,1-18.1.7-30.3,1-9.7-.6,10.1-.9,15.1-1.4-4.6,0-8.4.5-15.2.2l1.7-.7c-16.8.4-4.6.6-8.4,1.3-4.6.9-15.2,0-19.8,0l5-.2c-13.1-.3-16,.5-27.8.4l-5.5-.6c14.1.7,17.8-.9,25.4-.7-19.5-.7,5.8-1.5,12.4-2-9.3.1-17.7,0-22.7-.3-13.5.9-28.3-.3-41.3.8-7.2-.1,6.3-.5-1.3-.5-11.3,0-23.2,0-35.2.3,0-.4,0-.7,0-1.1-4.1,0-8.4,0-12.8,0-3.5,0-7.2,0-10.8,0-4.6,0-9.2,0-13.8.2l1.7-.2c-10.6-.1-14.2.6-21.3,1.1-2.9,0-5.9.1-8.8.2,2.1-.3.6-.5-.1-.8-8,.4-12.2-.2-20.3-.4,9.3.4-6.3.8.5,1,.2.4-3.4.5-8.2.6-4.2,0-8.7,0-13.6,0l5.9-.4c-2,0-4,0-5.8,0,6.5-.3,19.8-.3,10.8-1-8.4,0-10.5.5-4.6.6-10.5-.1-26.6-.2-34.2-.8-12.6.7-17.7.3-25.7,1.3,6.7,0,7.1-.7,15.6-.3l-5.9.4c-7.2.1-14.1,0-19.3-.4-5.1,0-8.9,0-11.9,0-.9,0-1.7,0-2.5,0l8.9-.3h-.4c3.4-.2,14.8,0,13.5-.5-8,.6-14.3,0-24.9.5h.4c-18.5.4-32.1-1.2-43.8.2,2.1,0,5.7.2,7.4.4-3,0-5.9,0-8.9,0-3.2,0-5.9-.1-5.7-.3h3.8c-10.5-.2-16.9-.3-20.7-.2-1.5.2-1.4.5-2.1.7-4.1,0-8.2,0-12.3,0,.7-.4,10.6-.8,1.8-1.1l-17.3.5-3.8-.4c-25.7-.4-45.5,1-72.9,1-.4-.7,19.4-1,26.1-1.1-8.4-.6-20.6.2-32-.2-10.6-.1-18.5.5-16.8,1-13,.3-9.3-.4-10.9-.6-4.2.8-20.7.5-31.2.7l-.5-.5-16.4.6c4.2,0,.4.5.4.7h-4.2c16.1,1.2,36.2-.9,52.7.5-5,.2,1.7.4-3.4.6-4.2,0-5-.1-5.5-.3-2.5.4-9.3.7-.4.7-.4,1-18.1.7-30.3,1-9.7-.6,10.1-.9,15.1-1.4-4.6,0-8.4.5-15.2.2l1.7-.7c-16.8.4-4.6.6-8.4,1.3-4.6.9-15.2,0-19.8,0l5-.2c-13.1-.3-16,.5-27.8.4l-5.5-.6c14.1.7,17.8-.9,25.4-.7-19.5-.7,5.8-1.5,12.4-2-9.3.1-17.7,0-22.7-.3-13.5.9-28.3-.3-41.3.8-7.2-.1,6.3-.5-1.3-.5-13.9,0-28.7,0-43.4.5-7.6,0-6.3-.3-8.4-.6-36.7-.4-51,1.3-91,.9l5.9-.4c-8.4,0-15.6-.2-19.8.3-10.6-1.2-35.8.8-49.3-.6-17.7-.2-18.5.8-32.5,1,0-.3,4.2-.8-3-.9-45.5.4-86.4.5-136.5.8.4-.1,2.9-.2,4.2-.2-3.8,0-5.5,0-9.3,0L0,35.4ZM1419.3,10.3h-4.5l6.2-.2c-.6,0-1.2.1-1.7.2ZM1411.3,10.3h-98.2c5.6-.4,15.3-.8,20.7-1.1-2.1.3,1.7.4,0,.6l20.6-.8c6.3.3,8.1.8,4.7,1.1,11.4.2,30.7-.6,30.8.3,14.7-.1-4.7-.5-5.9-.7h1.3s-15.6,0-15.6,0c-1.7-1,17.7.2,20.2-.7,2.5-1.8,22,.6,32.9.3l-11.4,1.2h0Z"/>
</svg>